<svg width="311" height="80" viewBox="0 0 311 80" fill="none" xmlns="http://www.w3.org/2000/svg">
<path d="M2.75977 64.166C1.99805 64.166 1.34766 63.8965 0.808594 63.3574C0.269531 62.8066 0 62.1504 0 61.3887V58.6289C0 57.8555 0.269531 57.1992 0.808594 56.6602C1.34766 56.1211 1.99805 55.8516 2.75977 55.8516H5.53711C6.29883 55.8516 6.94922 56.1211 7.48828 56.6602C8.02734 57.2109 8.29688 57.8672 8.29688 58.6289V61.3887C8.29688 62.1621 8.02734 62.8184 7.48828 63.3574C6.94922 63.8965 6.29883 64.166 5.53711 64.166H2.75977ZM11.0742 78C10.3008 78 9.64453 77.7305 9.10547 77.1914C8.56641 76.6523 8.29688 76.002 8.29688 75.2402V72.4629C8.29688 71.7012 8.56641 71.0508 9.10547 70.5117C9.64453 69.9727 10.3008 69.7031 11.0742 69.7031H23.5371C23.9121 69.7031 24.2344 69.5684 24.5039 69.2988C24.7734 69.0293 24.9082 68.7012 24.9082 68.3145V65.5547C24.9082 65.168 24.7734 64.8398 24.5039 64.5703C24.2344 64.3008 23.9121 64.166 23.5371 64.166H16.6113V55.8516H23.5371C23.9121 55.8516 24.2344 55.7168 24.5039 55.4473C24.7734 55.1777 24.9082 54.8496 24.9082 54.4629V51.7031C24.9082 51.3164 24.7734 50.9883 24.5039 50.7188C24.2344 50.4492 23.9121 50.3145 23.5371 50.3145H0V42H30.4453C31.2188 42 31.875 42.2754 32.4141 42.8262C32.9531 43.3652 33.2227 44.0156 33.2227 44.7773V75.2402C33.2227 76.002 32.9531 76.6523 32.4141 77.1914C31.875 77.7305 31.2188 78 30.4453 78H11.0742ZM40.5598 78C39.798 78 39.1477 77.7305 38.6086 77.1914C38.0695 76.6523 37.8 76.002 37.8 75.2402V55.8516H46.0969V75.2402C46.0969 76.002 45.8273 76.6523 45.2883 77.1914C44.7492 77.7305 44.0988 78 43.3371 78H40.5598ZM54.4113 78C53.6379 78 52.9816 77.7305 52.4426 77.1914C51.9035 76.6523 51.634 76.002 51.634 75.2402V51.7031C51.634 51.3164 51.4992 50.9883 51.2297 50.7188C50.9602 50.4492 50.632 50.3145 50.2453 50.3145H37.8V42H57.1711C57.9445 42 58.6008 42.2754 59.1398 42.8262C59.6789 43.3652 59.9484 44.0156 59.9484 44.7773V75.2402C59.9484 76.002 59.6789 76.6523 59.1398 77.1914C58.5891 77.7305 57.9328 78 57.1711 78H54.4113ZM64.5258 78V69.7031H94.9711C95.7445 69.7031 96.4008 69.9727 96.9398 70.5117C97.4789 71.0508 97.7484 71.7012 97.7484 72.4629V75.2402C97.7484 76.002 97.4789 76.6523 96.9398 77.1914C96.4008 77.7305 95.7445 78 94.9711 78H64.5258ZM72.8227 64.166V58.6289C72.8227 57.8555 73.0922 57.1992 73.6312 56.6602C74.1703 56.1211 74.8266 55.8516 75.6 55.8516H86.6742C87.4359 55.8516 88.0863 56.1211 88.6254 56.6602C89.1645 57.2109 89.434 57.8672 89.434 58.6289V64.166H72.8227ZM67.2855 50.3145C66.5238 50.3145 65.8734 50.0449 65.3344 49.5059C64.7953 48.9668 64.5258 48.3164 64.5258 47.5547V44.7773C64.5258 44.0156 64.7953 43.3652 65.3344 42.8262C65.8734 42.2754 66.5238 42 67.2855 42H97.7484V50.3145H67.2855ZM118.937 64.166C118.164 64.166 117.507 63.8965 116.968 63.3574C116.429 62.8066 116.16 62.1504 116.16 61.3887V58.6289C116.16 57.8555 116.429 57.1992 116.968 56.6602C117.519 56.1211 118.175 55.8516 118.937 55.8516H121.697C122.47 55.8516 123.127 56.1211 123.666 56.6602C124.205 57.2109 124.474 57.8672 124.474 58.6289V61.3887C124.474 62.1621 124.205 62.8184 123.666 63.3574C123.115 63.8965 122.459 64.166 121.697 64.166H118.937ZM128.623 69.7031C129.009 69.7031 129.338 69.5684 129.607 69.2988C129.877 69.0293 130.011 68.7012 130.011 68.3145V51.7031C130.011 51.3164 129.877 50.9883 129.607 50.7188C129.338 50.4492 129.009 50.3145 128.623 50.3145H112.011C111.625 50.3145 111.296 50.4492 111.027 50.7188C110.757 50.9883 110.623 51.3164 110.623 51.7031V68.3145C110.623 68.7012 110.757 69.0293 111.027 69.2988C111.296 69.5684 111.625 69.7031 112.011 69.7031H128.623ZM105.086 78C104.324 78 103.673 77.7305 103.134 77.1914C102.595 76.6523 102.326 76.002 102.326 75.2402V42H135.548C136.31 42 136.961 42.2754 137.5 42.8262C138.05 43.3652 138.326 44.0156 138.326 44.7773V75.2402C138.326 76.002 138.05 76.6523 137.5 77.1914C136.961 77.7305 136.31 78 135.548 78H105.086ZM156.737 78V66.9258C156.737 66.1641 157.007 65.5137 157.546 64.9746C158.096 64.4355 158.753 64.166 159.514 64.166H162.274C163.048 64.166 163.704 64.4355 164.243 64.9746C164.782 65.5137 165.052 66.1641 165.052 66.9258V78H156.737ZM145.663 78C144.901 78 144.251 77.7305 143.712 77.1914C143.173 76.6523 142.903 76.002 142.903 75.2402V42H151.2V75.2402C151.2 76.002 150.93 76.6523 150.391 77.1914C149.852 77.7305 149.202 78 148.44 78H145.663ZM173.348 78C172.587 78 171.936 77.7305 171.397 77.1914C170.858 76.6523 170.589 76.002 170.589 75.2402V42H178.903V75.2402C178.903 76.002 178.628 76.6523 178.077 77.1914C177.538 77.7305 176.887 78 176.126 78H173.348ZM186.24 78C185.479 78 184.828 77.7305 184.289 77.1914C183.75 76.6523 183.48 76.002 183.48 75.2402V55.8516H191.777V75.2402C191.777 76.002 191.508 76.6523 190.969 77.1914C190.43 77.7305 189.779 78 189.018 78H186.24ZM200.092 78C199.318 78 198.662 77.7305 198.123 77.1914C197.584 76.6523 197.314 76.002 197.314 75.2402V51.7031C197.314 51.3164 197.18 50.9883 196.91 50.7188C196.641 50.4492 196.312 50.3145 195.926 50.3145H183.48V42H202.852C203.625 42 204.281 42.2754 204.82 42.8262C205.359 43.3652 205.629 44.0156 205.629 44.7773V75.2402C205.629 76.002 205.359 76.6523 204.82 77.1914C204.27 77.7305 203.613 78 202.852 78H200.092ZM212.966 78C212.204 78 211.554 77.7305 211.015 77.1914C210.476 76.6523 210.206 76.002 210.206 75.2402V72.4629C210.206 71.7012 210.476 71.0508 211.015 70.5117C211.554 69.9727 212.204 69.7031 212.966 69.7031H243.429V78H212.966ZM210.206 64.166V44.7773C210.206 44.0156 210.476 43.3652 211.015 42.8262C211.554 42.2754 212.204 42 212.966 42H240.652C241.425 42 242.081 42.2754 242.62 42.8262C243.159 43.3652 243.429 44.0156 243.429 44.7773V61.3887C243.429 62.1621 243.159 62.8184 242.62 63.3574C242.081 63.8965 241.425 64.166 240.652 64.166H237.892C237.13 64.166 236.48 63.8965 235.941 63.3574C235.39 62.8066 235.114 62.1504 235.114 61.3887V51.7031C235.114 51.3164 234.98 50.9883 234.71 50.7188C234.441 50.4492 234.118 50.3145 233.743 50.3145H219.892C219.505 50.3145 219.177 50.4492 218.907 50.7188C218.638 50.9883 218.503 51.3164 218.503 51.7031V64.166H210.206ZM250.766 64.166C250.004 64.166 249.354 63.8965 248.815 63.3574C248.276 62.8066 248.006 62.1504 248.006 61.3887V58.6289C248.006 57.8555 248.276 57.1992 248.815 56.6602C249.354 56.1211 250.004 55.8516 250.766 55.8516H253.543C254.305 55.8516 254.955 56.1211 255.495 56.6602C256.034 57.2109 256.303 57.8672 256.303 58.6289V61.3887C256.303 62.1621 256.034 62.8184 255.495 63.3574C254.955 63.8965 254.305 64.166 253.543 64.166H250.766ZM259.08 78C258.307 78 257.651 77.7305 257.112 77.1914C256.573 76.6523 256.303 76.002 256.303 75.2402V72.4629C256.303 71.7012 256.573 71.0508 257.112 70.5117C257.651 69.9727 258.307 69.7031 259.08 69.7031H271.543C271.918 69.7031 272.241 69.5684 272.51 69.2988C272.78 69.0293 272.914 68.7012 272.914 68.3145V65.5547C272.914 65.168 272.78 64.8398 272.51 64.5703C272.241 64.3008 271.918 64.166 271.543 64.166H264.618V55.8516H271.543C271.918 55.8516 272.241 55.7168 272.51 55.4473C272.78 55.1777 272.914 54.8496 272.914 54.4629V51.7031C272.914 51.3164 272.78 50.9883 272.51 50.7188C272.241 50.4492 271.918 50.3145 271.543 50.3145H248.006V42H278.452C279.225 42 279.881 42.2754 280.42 42.8262C280.959 43.3652 281.229 44.0156 281.229 44.7773V75.2402C281.229 76.002 280.959 76.6523 280.42 77.1914C279.881 77.7305 279.225 78 278.452 78H259.08ZM302.418 78C301.644 78 300.988 77.7305 300.449 77.1914C299.91 76.6523 299.64 76.002 299.64 75.2402V72.4629C299.64 71.7012 299.91 71.0508 300.449 70.5117C301 69.9727 301.656 69.7031 302.418 69.7031H305.177C305.951 69.7031 306.607 69.9727 307.146 70.5117C307.685 71.0508 307.955 71.7012 307.955 72.4629V75.2402C307.955 76.002 307.685 76.6523 307.146 77.1914C306.595 77.7305 305.939 78 305.177 78H302.418ZM302.418 64.166C301.644 64.166 300.988 63.8965 300.449 63.3574C299.91 62.8066 299.64 62.1504 299.64 61.3887V58.6289C299.64 57.8555 299.91 57.1992 300.449 56.6602C301 56.1211 301.656 55.8516 302.418 55.8516H305.177C305.951 55.8516 306.607 56.1211 307.146 56.6602C307.685 57.2109 307.955 57.8672 307.955 58.6289V61.3887C307.955 62.1621 307.685 62.8184 307.146 63.3574C306.595 63.8965 305.939 64.166 305.177 64.166H302.418ZM285.806 78V44.7773C285.806 44.0156 286.076 43.3652 286.615 42.8262C287.154 42.2754 287.804 42 288.566 42H305.177C305.951 42 306.607 42.2754 307.146 42.8262C307.685 43.3652 307.955 44.0156 307.955 44.7773V47.5547C307.955 48.3164 307.685 48.9668 307.146 49.5059C306.595 50.0449 305.939 50.3145 305.177 50.3145H295.492C295.105 50.3145 294.777 50.4492 294.507 50.7188C294.238 50.9883 294.103 51.3164 294.103 51.7031V78H285.806Z" fill="white"/>
<path d="M2.28977 29V10.0909H13.7017V12.1222H4.57955V18.5114H13.1108V20.5426H4.57955V26.9688H13.8494V29H2.28977ZM51.0232 10.0909V29H48.8072L38.5033 14.1534H38.3186V29H36.0288V10.0909H38.2447L48.5857 24.9744H48.7703V10.0909H51.0232ZM89.0209 16H86.7311C86.5957 15.3414 86.3588 14.7628 86.0202 14.2642C85.6878 13.7656 85.2816 13.3471 84.8015 13.0085C84.3275 12.6638 83.8012 12.4053 83.2226 12.233C82.644 12.0606 82.0408 11.9744 81.413 11.9744C80.2681 11.9744 79.2309 12.2637 78.3015 12.8423C77.3782 13.4209 76.6426 14.2734 76.0948 15.3999C75.5531 16.5263 75.2823 17.9081 75.2823 19.5455C75.2823 21.1828 75.5531 22.5646 76.0948 23.6911C76.6426 24.8175 77.3782 25.67 78.3015 26.2486C79.2309 26.8272 80.2681 27.1165 81.413 27.1165C82.0408 27.1165 82.644 27.0303 83.2226 26.858C83.8012 26.6856 84.3275 26.4302 84.8015 26.0916C85.2816 25.7469 85.6878 25.3253 86.0202 24.8267C86.3588 24.322 86.5957 23.7434 86.7311 23.0909H89.0209C88.8486 24.0573 88.5346 24.9221 88.0792 25.6854C87.6237 26.4486 87.0574 27.098 86.3803 27.6335C85.7032 28.1629 84.943 28.5661 84.0998 28.843C83.2626 29.12 82.367 29.2585 81.413 29.2585C79.8003 29.2585 78.3661 28.8646 77.1104 28.0767C75.8547 27.2888 74.8668 26.1686 74.1466 24.7159C73.4265 23.2633 73.0664 21.5398 73.0664 19.5455C73.0664 17.5511 73.4265 15.8277 74.1466 14.375C74.8668 12.9223 75.8547 11.8021 77.1104 11.0142C78.3661 10.2263 79.8003 9.83239 81.413 9.83239C82.367 9.83239 83.2626 9.97088 84.0998 10.2479C84.943 10.5249 85.7032 10.9311 86.3803 11.4666C87.0574 11.996 87.6237 12.6423 88.0792 13.4055C88.5346 14.1626 88.8486 15.0275 89.0209 16ZM126.876 19.5455C126.876 21.5398 126.515 23.2633 125.795 24.7159C125.075 26.1686 124.087 27.2888 122.832 28.0767C121.576 28.8646 120.142 29.2585 118.529 29.2585C116.916 29.2585 115.482 28.8646 114.226 28.0767C112.971 27.2888 111.983 26.1686 111.263 24.7159C110.542 23.2633 110.182 21.5398 110.182 19.5455C110.182 17.5511 110.542 15.8277 111.263 14.375C111.983 12.9223 112.971 11.8021 114.226 11.0142C115.482 10.2263 116.916 9.83239 118.529 9.83239C120.142 9.83239 121.576 10.2263 122.832 11.0142C124.087 11.8021 125.075 12.9223 125.795 14.375C126.515 15.8277 126.876 17.5511 126.876 19.5455ZM124.66 19.5455C124.66 17.9081 124.386 16.5263 123.838 15.3999C123.296 14.2734 122.561 13.4209 121.631 12.8423C120.708 12.2637 119.674 11.9744 118.529 11.9744C117.384 11.9744 116.347 12.2637 115.417 12.8423C114.494 13.4209 113.759 14.2734 113.211 15.3999C112.669 16.5263 112.398 17.9081 112.398 19.5455C112.398 21.1828 112.669 22.5646 113.211 23.6911C113.759 24.8175 114.494 25.67 115.417 26.2486C116.347 26.8272 117.384 27.1165 118.529 27.1165C119.674 27.1165 120.708 26.8272 121.631 26.2486C122.561 25.67 123.296 24.8175 123.838 23.6911C124.386 22.5646 124.66 21.1828 124.66 19.5455ZM161.335 10.0909H163.625V22.6108C163.625 23.9034 163.32 25.0575 162.711 26.0732C162.107 27.0826 161.255 27.8797 160.153 28.4645C159.051 29.0431 157.759 29.3324 156.275 29.3324C154.792 29.3324 153.499 29.0431 152.397 28.4645C151.296 27.8797 150.44 27.0826 149.831 26.0732C149.227 25.0575 148.926 23.9034 148.926 22.6108V10.0909H151.215V22.4261C151.215 23.3494 151.419 24.1712 151.825 24.8913C152.231 25.6054 152.81 26.1686 153.561 26.581C154.318 26.9872 155.223 27.1903 156.275 27.1903C157.328 27.1903 158.233 26.9872 158.99 26.581C159.747 26.1686 160.325 25.6054 160.725 24.8913C161.132 24.1712 161.335 23.3494 161.335 22.4261V10.0909ZM201.392 10.0909V29H199.176L188.872 14.1534H188.687V29H186.397V10.0909H188.613L198.954 24.9744H199.139V10.0909H201.392ZM223.139 12.1222V10.0909H237.321V12.1222H231.375V29H229.085V12.1222H223.139ZM259.055 29V10.0909H270.467V12.1222H261.345V18.5114H269.876V20.5426H261.345V26.9688H270.615V29H259.055ZM292.794 29V10.0909H299.183C300.661 10.0909 301.873 10.3433 302.821 10.848C303.769 11.3466 304.471 12.0329 304.926 12.907C305.382 13.781 305.609 14.7751 305.609 15.8892C305.609 17.0033 305.382 17.9912 304.926 18.853C304.471 19.7147 303.772 20.3918 302.83 20.8842C301.889 21.3705 300.685 21.6136 299.22 21.6136H294.05V19.5455H299.146C300.156 19.5455 300.968 19.3977 301.584 19.1023C302.206 18.8068 302.655 18.3883 302.932 17.8466C303.215 17.2988 303.357 16.6463 303.357 15.8892C303.357 15.1321 303.215 14.4704 302.932 13.9041C302.649 13.3378 302.196 12.9008 301.575 12.593C300.953 12.2791 300.131 12.1222 299.109 12.1222H295.084V29H292.794ZM301.695 20.5057L306.348 29H303.689L299.109 20.5057H301.695Z" fill="white"/>
</svg>
